<svg xmlns="http://www.w3.org/2000/svg" width="125" height="115.178" viewBox="0 0 125 115.178">
  <g id="Group_38" data-name="Group 38" transform="translate(-1314 -5969.88)">
    <path id="Path_275" data-name="Path 275" d="M-9.735-8.406c.357-1.19.863-2.589,1.25-3.6-.06-.119-.179-.179-.387-.149a17.268,17.268,0,0,1-5.3,1.607.4.4,0,0,0-.06.6l1.369.149c1.131.119,1.22.536.536,2.857L-15.3,3.082c-.685,2.351-.982,2.827-2.857,3.065l-.744.089c-.238.089-.238.6,0,.744,1.339-.06,2.53-.089,3.631-.089,1.22,0,2.321.03,3.839.089a.549.549,0,0,0,.03-.744l-.774-.089c-1.518-.179-1.786-.476-1.071-2.857ZM1.188,7.308c3.333,0,6.548-2.143,6.548-5.744,0-2.024-1.429-3.661-2.946-4.732C7.081-4.3,9.4-5.489,9.4-7.781c0-2.44-1.786-4.375-4.762-4.375A5.54,5.54,0,0,0-1.044-6.828,4.729,4.729,0,0,0,1.247-3.168C-1.163-1.709-4.378-.578-4.378,2.814-4.378,5.672-1.937,7.308,1.188,7.308Zm.119-.893a3.336,3.336,0,0,1-3.423-3.69c0-2.351,1.756-3.839,4.167-5.238C3.718-1.531,5.384-.162,5.384,2.13A3.988,3.988,0,0,1,1.307,6.416ZM7.289-8.108c0,2.054-1.637,3.333-3.3,4.345C2.319-4.834,1.039-5.846,1.039-7.6a3.487,3.487,0,0,1,3.452-3.661C6.277-11.263,7.289-9.924,7.289-8.108ZM23.807-6.531a35.2,35.2,0,0,1,4.137-4.94.3.3,0,0,0-.208-.357c-.387.089-2.381.089-4.018.089h-5.03c-.8,0-1.369,0-1.845-.03-.446,0-.833-.03-1.28-.06a16.72,16.72,0,0,1-1.548,3.036c.089.208.506.357.655.208.982-1.19,1.131-1.369,3.363-1.369h5.684c.833,0,1.161.208.446,1.161L11.545,8.172c-.03.357.417.714.923.625ZM39.521,1.207A.975.975,0,0,0,39.878.076H38c-.506,0-.565-.208-.387-.774l1.7-5.714c.179-.6.268-.923-.119-.923a4.383,4.383,0,0,0-1.637.506.893.893,0,0,0-.417.6L35.5-.7c-.208.685-.357.774-1.071.774H29.759c-.833,0-1.22-.06-.714-.565L42.438-13.555c.119-.119.238-.238.238-.327,0-.149-.089-.238-.387-.238h-.565a1.025,1.025,0,0,0-.744.387L27.467-.37c-.6.6-.863.833-.863,1.131s.03.446.3.446h7.173c.774,0,.863.03.625.8l-.506,1.726c-.506,1.756-.714,2.292-2.2,2.411l-1.19.089c-.238.119-.268.655-.03.744,1.22-.06,2.44-.089,3.512-.089.923,0,2.024.03,3.214.089a.552.552,0,0,0,.089-.744l-.744-.089c-1.161-.149-1.131-.6-.565-2.411l.565-1.815c.208-.625.357-.714,1.1-.714Z" transform="translate(1365.699 5984)" fill="#0b1036"/>
    <path id="Path_276" data-name="Path 276" d="M-10.157-1.282c2.411-1.875,4.97-4.2,4.97-7.083,0-2.679-1.726-4.435-4.821-4.435a7.216,7.216,0,0,0-6.012,3.69.424.424,0,0,0,.625.446A5.713,5.713,0,0,1-10.931-11.4c1.786,0,3.155,1.19,3.155,3.452,0,3.571-4.524,6.994-7.173,9.2a61.553,61.553,0,0,1-6.1,4.613.268.268,0,0,0-.03.149.373.373,0,0,0,.179.327c.536-.06,1.548-.089,3.125-.089h4.286c1.964,0,3.185.03,4.375.089a14.058,14.058,0,0,0,1.7-3.482.539.539,0,0,0-.625-.179c-1.31,1.756-1.577,1.786-4.137,1.786h-3.482c-.774,0-1.012-.089-1.012-.268s.506-.8,3.988-3.512ZM6.6-12.8c-2.232,0-4.048,1.339-5.506,3.065A17.612,17.612,0,0,0-2.836.92c0,2.44.714,5.744,4.435,5.744A7.063,7.063,0,0,0,6.866,3.688,18.821,18.821,0,0,0,10.854-7.086C10.854-9.526,10.259-12.8,6.6-12.8Zm-.089.893c1.637,0,2.054,1.548,2.054,3.333a25.834,25.834,0,0,1-1.875,8.1c-.8,2.143-2.44,6.25-4.97,6.25-1.667,0-2.262-1.28-2.262-3.155A26.453,26.453,0,0,1,2.7-8.693C3.8-10.6,5.2-11.907,6.509-11.907ZM21.39-1.282c2.411-1.875,4.97-4.2,4.97-7.083,0-2.679-1.726-4.435-4.821-4.435a7.216,7.216,0,0,0-6.012,3.69.424.424,0,0,0,.625.446A5.713,5.713,0,0,1,20.616-11.4c1.786,0,3.155,1.19,3.155,3.452,0,3.571-4.524,6.994-7.173,9.2a61.553,61.553,0,0,1-6.1,4.613.268.268,0,0,0-.03.149.373.373,0,0,0,.179.327c.536-.06,1.548-.089,3.125-.089h4.286c1.964,0,3.185.03,4.375.089a14.057,14.057,0,0,0,1.7-3.482.539.539,0,0,0-.625-.179c-1.31,1.756-1.577,1.786-4.137,1.786H15.884c-.774,0-1.012-.089-1.012-.268s.506-.8,3.988-3.512Zm15.774,0c2.411-1.875,4.97-4.2,4.97-7.083,0-2.679-1.726-4.435-4.821-4.435A7.216,7.216,0,0,0,31.3-9.11a.424.424,0,0,0,.625.446A5.713,5.713,0,0,1,36.39-11.4c1.786,0,3.155,1.19,3.155,3.452,0,3.571-4.524,6.994-7.173,9.2a61.552,61.552,0,0,1-6.1,4.613.268.268,0,0,0-.03.149.373.373,0,0,0,.179.327c.536-.06,1.548-.089,3.125-.089H33.83c1.964,0,3.185.03,4.375.089a14.058,14.058,0,0,0,1.7-3.482.539.539,0,0,0-.625-.179C37.967,4.432,37.7,4.462,35.14,4.462H31.658c-.774,0-1.012-.089-1.012-.268s.506-.8,3.988-3.512Z" transform="translate(1364.723 6078.394)" fill="#0b1036"/>
    <path id="Path_274" data-name="Path 274" d="M416,2154.667H541" transform="translate(898 3873.427)" fill="none" stroke="#0b1036" stroke-width="1"/>
  </g>
</svg>
